<svg width="24"
     height="24"
     viewBox="0 0 24 24"
     xmlns="http://www.w3.org/2000/svg">
    <path
          d="M18.3636 18.364C18.7541 17.9734 18.7541 17.3403 18.3636 16.9497L13.4145 12.0007L18.365 7.05025C18.7555 6.65973 18.7555 6.02656 18.3649 5.63604C17.9744 5.24551 17.3413 5.24551 16.9507 5.63603L12.0003 10.5865L7.04988 5.63603C6.65936 5.24551 6.02619 5.24551 5.63567 5.63603C5.24514 6.02656 5.24514 6.65972 5.63567 7.05025L10.5861 12.0007L5.63702 16.9497C5.2465 17.3403 5.2465 17.9734 5.63703 18.364C6.02755 18.7545 6.66072 18.7545 7.05124 18.364L12.0003 13.4149L16.9494 18.364C17.3399 18.7545 17.9731 18.7545 18.3636 18.364Z" />
</svg>