<svg width="16"
     height="13"
     viewBox="0 0 16 13"
     xmlns="http://www.w3.org/2000/svg">
    <path
          d="M14 0C15.1046 0 16 0.89543 16 2V11C16 12.1046 15.1046 13 14 13H2C0.89543 13 0 12.1046 0 11V2C0 0.89543 0.89543 0 2 0H14ZM2 4.02516V10.8C2 10.9105 2.08954 11 2.2 11H13.8C13.9105 11 14 10.9105 14 10.8V4.08211C14 3.97165 13.9105 3.88211 13.8 3.88211C13.7536 3.88211 13.7086 3.89826 13.6728 3.92779L8.64215 8.07542C8.30485 8.35349 7.83104 8.37752 7.47022 8.14822L7.36561 8.07183L2.32808 3.87155C2.24324 3.80081 2.11713 3.81225 2.04639 3.89708C2.01642 3.93303 2 3.97835 2 4.02516ZM12.3099 2H3.76007C3.64962 2 3.56007 2.08954 3.56007 2.2C3.56007 2.25933 3.58641 2.3156 3.63198 2.35359L7.88166 5.8978C7.95551 5.95939 8.06275 5.9597 8.13696 5.89854L12.4371 2.35433C12.5223 2.28408 12.5345 2.15803 12.4642 2.0728C12.4262 2.0267 12.3696 2 12.3099 2Z" />
</svg>