<svg width="23"
     height="26"
     viewBox="0 0 23 26"
     xmlns="http://www.w3.org/2000/svg">
    <path
          d="M20.5357 1.625H2.46429C1.81072 1.625 1.18392 1.88181 0.721773 2.33893C0.259629 2.79605 0 3.41603 0 4.0625L0 21.9375C0 22.584 0.259629 23.204 0.721773 23.6611C1.18392 24.1182 1.81072 24.375 2.46429 24.375H9.5106V16.6405H6.27623V13H9.5106V10.2253C9.5106 7.06926 11.4102 5.32594 14.3196 5.32594C15.7129 5.32594 17.1699 5.57172 17.1699 5.57172V8.66937H15.5645C13.9828 8.66937 13.4894 9.64031 13.4894 10.6361V13H17.0205L16.4558 16.6405H13.4894V24.375H20.5357C21.1893 24.375 21.8161 24.1182 22.2782 23.6611C22.7404 23.204 23 22.584 23 21.9375V4.0625C23 3.41603 22.7404 2.79605 22.2782 2.33893C21.8161 1.88181 21.1893 1.625 20.5357 1.625Z" />
</svg>