<svg width="23"
     height="26"
     viewBox="0 0 23 26"
     xmlns="http://www.w3.org/2000/svg">

    <path
          d="M11.5051 7.16013C8.23995 7.16013 5.60625 9.76521 5.60625 12.9949C5.60625 16.2246 8.23995 18.8297 11.5051 18.8297C14.7703 18.8297 17.404 16.2246 17.404 12.9949C17.404 9.76521 14.7703 7.16013 11.5051 7.16013ZM11.5051 16.7883C9.39508 16.7883 7.67008 15.0871 7.67008 12.9949C7.67008 10.9027 9.38995 9.20154 11.5051 9.20154C13.6203 9.20154 15.3402 10.9027 15.3402 12.9949C15.3402 15.0871 13.6152 16.7883 11.5051 16.7883ZM19.0212 6.92146C19.0212 7.6781 18.4051 8.2824 17.6453 8.2824C16.8803 8.2824 16.2694 7.67302 16.2694 6.92146C16.2694 6.1699 16.8855 5.56052 17.6453 5.56052C18.4051 5.56052 19.0212 6.1699 19.0212 6.92146ZM22.9281 8.30271C22.8408 6.47966 22.4198 4.86482 21.0696 3.53435C19.7245 2.20388 18.0919 1.78748 16.2489 1.69607C14.3493 1.58943 8.6558 1.58943 6.75625 1.69607C4.9183 1.7824 3.28572 2.1988 1.93549 3.52927C0.585272 4.85974 0.169425 6.47459 0.0770141 8.29763C-0.0307983 10.1765 -0.0307983 15.8082 0.0770141 17.6871C0.164291 19.5101 0.585272 21.125 1.93549 22.4554C3.28572 23.7859 4.91317 24.2023 6.75625 24.2937C8.6558 24.4004 14.3493 24.4004 16.2489 24.2937C18.0919 24.2074 19.7245 23.791 21.0696 22.4554C22.4147 21.125 22.8357 19.5101 22.9281 17.6871C23.0359 15.8082 23.0359 10.1816 22.9281 8.30271ZM20.4741 19.7031C20.0736 20.6984 19.2984 21.4652 18.287 21.8664C16.7725 22.4605 13.1788 22.3234 11.5051 22.3234C9.83147 22.3234 6.23259 22.4554 4.72321 21.8664C3.71696 21.4703 2.94174 20.7035 2.53616 19.7031C1.93549 18.2051 2.07411 14.6504 2.07411 12.9949C2.07411 11.3394 1.94063 7.77966 2.53616 6.28669C2.93661 5.29138 3.71183 4.52459 4.72321 4.12341C6.23772 3.52927 9.83147 3.66638 11.5051 3.66638C13.1788 3.66638 16.7777 3.53435 18.287 4.12341C19.2933 4.51951 20.0685 5.2863 20.4741 6.28669C21.0748 7.78474 20.9361 11.3394 20.9361 12.9949C20.9361 14.6504 21.0748 18.2101 20.4741 19.7031Z" />
</svg>