<svg width="23"
     height="26"
     viewBox="0 0 23 26"
     xmlns="http://www.w3.org/2000/svg">
    <path
          d="M21.3571 1.625H1.63772C0.734152 1.625 0 2.36133 0 3.26523V22.7348C0 23.6387 0.734152 24.375 1.63772 24.375H21.3571C22.2607 24.375 23 23.6387 23 22.7348V3.26523C23 2.36133 22.2607 1.625 21.3571 1.625ZM6.95134 21.125H3.54241V10.268H6.95647V21.125H6.95134ZM5.24687 8.78516C4.15335 8.78516 3.27031 7.90664 3.27031 6.83008C3.27031 5.75352 4.15335 4.875 5.24687 4.875C6.33527 4.875 7.22344 5.75352 7.22344 6.83008C7.22344 7.91172 6.3404 8.78516 5.24687 8.78516ZM19.7297 21.125H16.3208V15.8438C16.3208 14.5844 16.2951 12.9645 14.5496 12.9645C12.7732 12.9645 12.5011 14.3355 12.5011 15.7523V21.125H9.09219V10.268H12.3625V11.7508H12.4087C12.8656 10.8977 13.9797 9.99883 15.6379 9.99883C19.0879 9.99883 19.7297 12.2484 19.7297 15.1734V21.125Z" />
</svg>